<?xml version="1.0" standalone="no"?>
<!DOCTYPE svg PUBLIC "-//W3C//DTD SVG 20010904//EN"
 "http://www.w3.org/TR/2001/REC-SVG-20010904/DTD/svg10.dtd">
<svg version="1.0" xmlns="http://www.w3.org/2000/svg"
 width="512.000000pt" height="512.000000pt" viewBox="0 0 512.000000 512.000000"
 preserveAspectRatio="xMidYMid meet">
<metadata>
Created by potrace 1.14, written by Peter Selinger 2001-2017
</metadata>
<g transform="translate(0.000000,512.000000) scale(0.100000,-0.100000)"
fill="#000000" stroke="none">
<path d="M2330 4860 c-25 -4 -65 -10 -90 -13 -25 -3 -56 -8 -70 -11 -14 -3
-38 -7 -55 -10 -104 -15 -341 -87 -455 -138 -168 -75 -335 -167 -430 -237
-230 -169 -411 -350 -568 -566 -96 -133 -218 -367 -280 -536 -40 -111 -95
-311 -107 -394 -3 -22 -8 -53 -11 -70 -25 -144 -26 -506 0 -665 52 -326 145
-591 302 -860 34 -57 137 -209 161 -235 10 -11 36 -43 58 -70 60 -76 220 -232
314 -308 321 -259 706 -429 1121 -494 124 -19 490 -25 605 -10 387 51 715 171
1015 372 445 297 763 716 930 1225 78 238 110 463 106 745 -6 383 -76 673
-248 1016 -106 212 -248 409 -423 584 -356 357 -800 582 -1300 661 -116 19
-488 27 -575 14z"/>
</g>
</svg>
